<?xml version="1.0" encoding="UTF-8"?><svg id="a" xmlns="http://www.w3.org/2000/svg" viewBox="0 0 128 128"><defs><style>.b{fill:#705b39;}</style></defs><path class="b" d="M124.5,0H3.5C1.57,0,0,1.57,0,3.5v121c0,1.94,1.57,3.5,3.5,3.5h121c1.94,0,3.5-1.56,3.5-3.5V3.5c0-1.93-1.56-3.5-3.5-3.5ZM108.28,59.77c-3.34,12-15.54,15.06-26.39,13.21,18.97,3.24,23.79,13.96,13.37,24.69-19.79,20.37-28.44-5.11-30.65-11.64-.41-1.21-.61-1.77-.61-1.27,0-.5-.19.06-.6,1.27-2.21,6.53-10.86,32.01-30.65,11.64-10.42-10.73-5.6-21.45,13.37-24.69-10.85,1.85-23.05-1.21-26.39-13.21-.97-3.45-2.61-24.71-2.61-27.58,0-14.39,12.57-9.87,20.33-4.03,10.75,8.1,22.31,24.52,26.55,33.33,4.25-8.81,15.81-25.23,26.56-33.33,7.76-5.84,20.33-10.36,20.33,4.03,0,2.87-1.64,24.13-2.61,27.58Z"/></svg>