<?xml version="1.0" encoding="UTF-8"?><svg id="a" xmlns="http://www.w3.org/2000/svg" viewBox="0 0 128 128"><defs><style>.b{fill:#705b39;}</style></defs><path class="b" d="M57.08,67.46c0,5.06-3.63,9.17-8.19,9.17s-8.18-4.11-8.18-9.17,3.62-9.18,8.18-9.18,8.26,4.16,8.19,9.18Z"/><path class="b" d="M87.34,67.46c0,5.06-3.59,9.17-8.18,9.17s-8.19-4.11-8.19-9.17,3.63-9.18,8.19-9.18,8.25,4.16,8.18,9.18Z"/><path class="b" d="M124.5,0H3.5C1.56,0,0,1.56,0,3.5v121c0,1.93,1.56,3.5,3.5,3.5h121c1.93,0,3.5-1.57,3.5-3.5V3.5c0-1.94-1.57-3.5-3.5-3.5ZM109.14,86.98c0,.08-.05.16-.11.21-6.89,5.1-14.59,8.98-22.78,11.49-.12.04-.25-.01-.32-.11-1.74-2.4-3.29-4.93-4.65-7.56-.01,0-.01-.02-.02-.03-.05-.15.02-.32.17-.37,2.46-.93,4.84-2.06,7.11-3.38.03-.02.06-.05.08-.08.1-.13.08-.31-.05-.41-.48-.36-.96-.73-1.42-1.11-.08-.07-.2-.08-.3-.03-14.73,6.8-30.86,6.8-45.77,0-.1-.05-.21-.03-.29.04-.46.37-.94.74-1.41,1.1-.03.02-.06.05-.08.09-.08.14-.03.31.1.4,2.28,1.31,4.66,2.44,7.11,3.38.01,0,.02.01.03.01.14.08.2.25.13.39-1.34,2.65-2.9,5.18-4.66,7.57-.07.1-.2.14-.32.1-8.17-2.51-15.86-6.4-22.74-11.49-.06-.05-.11-.13-.12-.21-1.58-16.99,1.65-34.19,13.46-51.82.03-.05.07-.09.12-.11,5.91-2.71,12.14-4.64,18.54-5.75.12-.01.24.04.3.15.87,1.53,1.65,3.11,2.34,4.74,6.9-1.05,13.92-1.05,20.83,0,.68-1.62,1.45-3.2,2.3-4.74.06-.11.18-.17.3-.15,6.4,1.11,12.64,3.04,18.54,5.75.05.02.09.06.12.11,10.28,15.12,15.36,32.18,13.46,51.82Z"/></svg>