<?xml version="1.0" encoding="UTF-8"?><svg id="a" xmlns="http://www.w3.org/2000/svg" viewBox="0 0 128 128"><defs><style>.b{fill:#705b39;}</style></defs><path class="b" d="M100.97,83.7c-.37.63-1.03.98-1.71.98-.32,0-.66-.08-.97-.25l-27.01-15.51-6.07,4.8s-.1-.14-.15-.11c-.32.22-.67.21-1.05.21h-.01c-.38,0-.74.01-1.06-.21-.05-.03-.11.07-.16.03l-6.07-4.75-27,15.52c-.31.17-.64.26-.98.26-.67,0-1.34-.34-1.7-.97-.54-.94-.21-2.13.73-2.68l25.64-14.73-25.88-20.44c-.85-.67-.99-1.9-.33-2.75.68-.85,1.91-.99,2.76-.32l34.05,26.89,34.05-26.89c.85-.67,2.08-.53,2.75.32.67.85.53,2.08-.32,2.75l-25.88,20.45,25.64,14.72c.94.54,1.26,1.74.73,2.68Z"/><path class="b" d="M124.5,0H3.5C1.57,0,0,1.57,0,3.5v121c0,1.94,1.57,3.5,3.5,3.5h121c1.93,0,3.5-1.56,3.5-3.5V3.5c0-1.93-1.57-3.5-3.5-3.5ZM111.02,91.43c0,1.08-.88,1.96-1.96,1.96H18.94c-1.08,0-1.96-.88-1.96-1.96v-54.86c0-1.07.88-1.95,1.96-1.95h90.12c1.08,0,1.96.88,1.96,1.95v54.86Z"/></svg>