<?xml version="1.0" encoding="UTF-8"?><svg id="a" xmlns="http://www.w3.org/2000/svg" viewBox="0 0 128 128"><defs><style>.b{fill:#705b39;}</style></defs><path class="b" d="M124.5,0H3.5C1.57,0,0,1.57,0,3.5v121c0,1.94,1.57,3.5,3.5,3.5h121c1.93,0,3.5-1.56,3.5-3.5V3.5c0-1.93-1.57-3.5-3.5-3.5ZM80.18,104.86l-21.81-31.74-27.31,31.74h-7.06l31.23-36.3L24,23.1h23.82l20.66,30.06,25.86-30.06h7.05l-29.78,34.62,32.39,47.14h-23.82Z"/><polygon class="b" points="33.6 28.42 44.44 28.42 94.34 99.79 83.5 99.79 33.6 28.42"/></svg>